<?xml version="1.0" standalone="no"?>
<!DOCTYPE svg PUBLIC "-//W3C//DTD SVG 20010904//EN"
 "http://www.w3.org/TR/2001/REC-SVG-20010904/DTD/svg10.dtd">
<svg version="1.0" xmlns="http://www.w3.org/2000/svg"
 width="225.000000pt" height="225.000000pt" viewBox="0 0 225.000000 225.000000"
 preserveAspectRatio="xMidYMid meet">

<g transform="translate(0.000000,225.000000) scale(0.100000,-0.100000)"
fill="#E1306C" stroke="none">
<path d="M460 2240 c-227 -23 -386 -159 -440 -375 -9 -36 -14 -207 -17 -606
-4 -498 -3 -556 11 -568 19 -16 21 -38 4 -43 -8 -3 -9 -11 -3 -24 8 -18 9 -18
12 3 3 13 9 23 14 23 5 0 9 6 9 14 0 15 62 66 79 66 6 0 11 4 11 10 0 5 18 14
40 20 22 6 48 20 59 31 18 20 18 20 15 -8 -4 -23 -3 -24 5 -8 l8 20 6 -20 c4
-13 5 -10 3 8 -2 15 0 27 4 27 5 0 10 163 13 363 3 208 10 383 16 412 41 183
179 318 366 357 42 9 178 13 455 13 343 0 404 -3 464 -18 181 -46 293 -157
344 -340 15 -54 17 -114 17 -467 0 -442 -4 -480 -61 -591 -29 -59 -105 -144
-147 -165 -16 -9 -25 -20 -21 -26 4 -6 3 -8 -3 -5 -6 4 -37 -2 -69 -14 -33
-11 -90 -23 -128 -26 -58 -5 -66 -8 -52 -19 16 -11 16 -13 -1 -23 -10 -6 -12
-11 -5 -11 6 0 12 -6 12 -13 0 -7 9 -30 20 -52 11 -22 20 -52 20 -67 0 -15 5
-28 10 -28 6 0 10 -18 10 -40 l0 -40 130 0 c189 0 252 15 360 86 75 48 116 96
158 180 57 114 57 110 57 854 0 624 -2 691 -18 749 -47 173 -164 292 -335 344
-64 20 -96 21 -712 23 -355 1 -679 -2 -720 -6z"/>
<path d="M704 1790 c-107 -22 -189 -87 -226 -178 -22 -56 -23 -66 -24 -457 -1
-220 2 -373 6 -340 4 33 8 49 9 35 3 -18 5 -20 8 -7 4 15 19 17 134 17 116 0
129 2 130 18 0 10 3 12 6 4 2 -6 8 -10 12 -7 4 2 -5 31 -21 64 -52 109 -53
259 -2 368 31 65 99 142 161 181 141 89 357 81 482 -17 23 -18 46 -29 52 -25
7 4 9 3 5 -4 -3 -6 12 -35 34 -64 106 -139 109 -355 5 -499 -39 -54 -44 -68
-17 -48 14 11 14 10 -2 -8 -10 -13 -23 -20 -28 -17 -4 3 -23 -7 -41 -22 -69
-58 -220 -102 -312 -90 -29 4 -34 3 -20 -3 11 -5 31 -10 45 -10 20 -1 22 -3
10 -11 -12 -8 -9 -10 12 -10 15 0 37 -4 50 -9 31 -11 102 -73 106 -91 5 -20
72 -81 83 -75 5 4 6 -1 3 -9 -3 -9 -22 -16 -47 -19 -23 -2 1 -4 53 -5 266 -5
386 72 420 269 8 43 10 193 8 444 -4 443 -6 454 -93 541 -87 88 -87 88 -555
90 -223 1 -423 -1 -446 -6z m909 -131 c63 -32 77 -111 28 -160 -24 -23 -38
-29 -74 -29 -38 0 -49 5 -71 31 -44 52 -29 136 28 159 30 12 64 12 89 -1z
m-394 -982 c-8 -8 -26 -11 -48 -8 l-36 5 40 7 c22 3 44 7 48 8 4 0 2 -5 -4
-12z"/>
<path d="M1036 1384 c-72 -23 -149 -103 -172 -179 -50 -174 83 -355 261 -355
97 0 207 71 246 159 50 113 31 220 -55 306 -79 80 -171 102 -280 69z"/>
<path d="M767 864 c-3 -4 -2 -16 4 -28 9 -19 8 -18 -8 2 l-19 23 -11 -24 c-10
-22 -9 -24 15 -23 15 1 32 5 39 9 15 10 23 -5 18 -32 -2 -12 0 -19 6 -16 5 4
7 11 4 16 -9 13 9 11 23 -3 6 -6 13 -10 14 -7 5 8 -79 89 -85 83z"/>
<path d="M292 750 c0 -19 2 -27 5 -17 2 9 2 25 0 35 -3 9 -5 1 -5 -18z"/>
<path d="M870 766 c0 -2 7 -7 16 -10 8 -3 12 -2 9 4 -6 10 -25 14 -25 6z"/>
<path d="M917 739 c7 -7 15 -10 18 -7 3 3 -2 9 -12 12 -14 6 -15 5 -6 -5z"/>
<path d="M990 670 c-9 -6 -10 -10 -3 -10 6 0 15 5 18 10 8 12 4 12 -15 0z"/>
<path d="M1391 286 c2 -2 20 -6 39 -10 25 -4 31 -3 20 4 -14 9 -69 15 -59 6z"/>
</g>
</svg>
